<svg version="1.2" xmlns="http://www.w3.org/2000/svg" viewBox="0 0 109 58" width="109" height="58">
	<title>logo-svg</title>
	<defs>
		<clipPath clipPathUnits="userSpaceOnUse" id="cp1">
			<path d="m-19-3h146v64h-146z"/>
		</clipPath>
	</defs>
	<style>
		.s0 { fill: #efeded } 
		.s1 { fill: #dae032 } 
		.s2 { fill: #4d6b7e;stroke: #4d6b7e;stroke-width: 1.3 } 
	</style>
	<g id="Clip-Path: Mask_Group_1" clip-path="url(#cp1)">
		<g id="Mask_Group_1">
			<g id="Layer_1">
				<g id="Group_7">
					<g id="Group_5">
						<g id="Group_2">
							<g id="Group_1">
								<path id="Ellipse_1" class="s0" d="m41.3 28.6c-2.7 2.4-10.3-1.8-17-9.3-6.8-7.5-10.1-15.6-7.4-17.9 2.7-2.4 10.3 1.7 17 9.2 6.8 7.6 10.1 15.6 7.4 18z"/>
								<path id="Ellipse_2" class="s0" d="m58.6 19.3c-6.8 7.5-14.4 11.6-17 9.2-2.7-2.4 0.6-10.4 7.3-17.9 6.8-7.5 14.4-11.7 17-9.3 2.7 2.4-0.6 10.4-7.3 18z"/>
								<path id="Ellipse_3" class="s0" d="m34 47.4c-6.7 7.5-14.4 11.6-17 9.2-2.7-2.3 0.6-10.4 7.3-17.9 6.8-7.5 14.4-11.7 17.1-9.3 2.6 2.4-0.7 10.4-7.4 18z"/>
								<path id="Ellipse_4" class="s0" d="m66 56.7c-2.7 2.4-10.3-1.8-17-9.3-6.7-7.5-10-15.5-7.4-17.9 2.7-2.4 10.3 1.7 17 9.2 6.8 7.6 10.1 15.6 7.4 18z"/>
							</g>
							<path id="Ellipse_5" class="s0" d="m41.5 34.2c-2.9 0-5.3-2.3-5.3-5.2 0-2.9 2.4-5.2 5.3-5.2 2.9 0 5.2 2.3 5.2 5.2 0 2.9-2.3 5.2-5.2 5.2z"/>
						</g>
						<g id="Group_4">
							<g id="Group_3">
								<path id="Ellipse_6" class="s1" d="m66.8 28.6c-2.7 2.4-10.3-1.8-17.1-9.3-6.7-7.5-10-15.6-7.3-17.9 2.7-2.4 10.3 1.7 17 9.2 6.7 7.6 10 15.6 7.4 18z"/>
								<path id="Ellipse_7" class="s1" d="m84.1 19.3c-6.8 7.5-14.4 11.6-17.1 9.2-2.6-2.4 0.7-10.4 7.4-17.9 6.7-7.5 14.4-11.7 17-9.3 2.7 2.4-0.6 10.4-7.3 18z"/>
								<path id="Ellipse_8" class="s1" d="m59.5 47.4c-6.8 7.5-14.4 11.6-17 9.2-2.7-2.3 0.6-10.4 7.3-17.9 6.8-7.5 14.4-11.7 17-9.3 2.7 2.4-0.6 10.4-7.3 18z"/>
								<path id="Ellipse_9" class="s1" d="m91.5 56.7c-2.7 2.4-10.3-1.8-17-9.3-6.8-7.5-10.1-15.5-7.4-17.9 2.7-2.4 10.3 1.7 17 9.2 6.8 7.6 10.1 15.6 7.4 18z"/>
							</g>
							<path id="Ellipse_10" class="s1" d="m66.9 34.2c-2.9 0-5.2-2.3-5.2-5.2 0-2.9 2.3-5.2 5.2-5.2 2.9 0 5.3 2.3 5.3 5.2 0 2.9-2.4 5.2-5.3 5.2z"/>
						</g>
					</g>
					<g id="Group_6">
						<path id="Path_1" class="s2" d="m15.9 34.2c0 5.4-2.6 8.2-7.6 8.2-5 0-7.6-2.8-7.6-8.2v-13h2v13.1c0 4.1 1.7 6.2 5.6 6.2 3.9 0 5.7-2.1 5.7-6.2v-13.1h1.9z"/>
						<path id="Path_2" class="s2" d="m27.5 23.5l1.7-0.2v2.4q0.6-0.6 1.2-1.1 0.7-0.5 1.4-0.9 0.7-0.3 1.5-0.5 0.8-0.1 1.7-0.1c4.8 0 6.5 3.1 6.5 7.6v11.3h-1.9v-10.7c0-4.1-1.2-6.6-4.9-6.6q-0.8 0.1-1.5 0.2-0.8 0.2-1.5 0.6-0.7 0.3-1.3 0.8-0.6 0.5-1 1.1v14.6h-1.9c0 0 0-18.5 0-18.5z"/>
						<path id="Path_3" class="s2" d="m53.1 17.1c0-0.4 0.1-0.8 0.4-1 0.3-0.3 0.7-0.4 1.1-0.4 0.4 0 0.8 0.1 1.1 0.4 0.2 0.3 0.4 0.7 0.4 1.1 0 0.4-0.2 0.8-0.5 1-0.3 0.3-0.7 0.5-1.1 0.5-0.4 0-0.7-0.2-1-0.5-0.3-0.3-0.4-0.7-0.4-1.1zm0.5 6.4l1.9-0.2v18.7h-1.9c0 0 0-18.5 0-18.5z"/>
						<path id="Path_4" class="s2" d="m65.7 23.4h2.1l6.4 16.6 6.6-16.6h2l-7.6 18.5-2 0.1z"/>
						<path id="Path_5" fill-rule="evenodd" class="s2" d="m91.7 37.7c0-2.7 2-5.8 11-6v-1.7c0-2.9-0.6-5.3-4.7-5.3q-0.7 0-1.4 0.2-0.6 0.1-1.3 0.3-0.7 0.2-1.3 0.4-0.7 0.3-1.3 0.7l-0.1-1.6q0.6-0.4 1.3-0.7 0.7-0.3 1.4-0.5 0.7-0.2 1.4-0.3 0.8-0.1 1.5-0.1c5.1 0 6.3 2.8 6.3 6.3v8c0 2.3 0.2 3.2 2 3.4q0.2 0 0.3 0 0.2 0 0.3 0 0.2 0 0.3 0 0.2 0 0.3 0l-0.1 1.3q-0.2 0-0.4 0-0.2 0.1-0.4 0.1-0.2 0-0.5 0-0.2 0-0.4 0-0.5 0.1-1 0-0.5-0.2-0.9-0.5-0.4-0.3-0.7-0.8-0.2-0.4-0.3-0.9-0.6 0.6-1.2 1-0.7 0.5-1.5 0.8-0.7 0.3-1.5 0.4-0.8 0.2-1.6 0.2c-3.1 0-5.5-1.9-5.5-4.7zm11 0.8v-5.2c-7.1-0.1-9.1 2.1-9.1 4.2 0 1.9 1.5 3.2 3.9 3.2q0.8 0 1.5-0.1 0.7-0.2 1.3-0.4 0.7-0.3 1.3-0.7 0.6-0.4 1.1-1z"/>
					</g>
				</g>
			</g>
		</g>
	</g>
</svg>